<?xml version="1.0" standalone="no"?>
<!DOCTYPE svg PUBLIC "-//W3C//DTD SVG 20010904//EN"
 "http://www.w3.org/TR/2001/REC-SVG-20010904/DTD/svg10.dtd">
<svg version="1.0" xmlns="http://www.w3.org/2000/svg"
 width="464.000000pt" height="464.000000pt" viewBox="0 0 464.000000 464.000000"
 preserveAspectRatio="xMidYMid meet">
<metadata>
Created by potrace 1.14, written by Peter Selinger 2001-2017
</metadata>
<g transform="translate(0.000000,464.000000) scale(0.100000,-0.100000)"
fill="#000000" stroke="none">
<path d="M0 2320 l0 -2320 2320 0 2320 0 0 2320 0 2320 -2320 0 -2320 0 0
-2320z m2050 868 c651 -1126 854 -1477 872 -1508 l20 -35 -293 -477 c-162
-263 -296 -478 -299 -478 -4 0 -1439 2506 -1593 2781 l-39 69 564 0 564 0 204
-352z m1938 338 c-2 -7 -140 -251 -308 -541 l-305 -527 -5 356 -5 355 -120 74
c-66 40 -192 116 -280 169 -88 54 -169 104 -180 112 -18 14 43 15 593 16 516
0 613 -2 610 -14z"/>
</g>
</svg>
